<?xml version="1.0" encoding="UTF-8" standalone="no"?>
<!DOCTYPE svg PUBLIC "-//W3C//DTD SVG 1.1//EN" "http://www.w3.org/Graphics/SVG/1.1/DTD/svg11.dtd">
<svg width="100%" height="100%" viewBox="0 0 3000 3000" version="1.1" xmlns="http://www.w3.org/2000/svg" xmlns:xlink="http://www.w3.org/1999/xlink" xml:space="preserve" xmlns:serif="http://www.serif.com/" style="fill-rule:evenodd;clip-rule:evenodd;stroke-linejoin:round;stroke-miterlimit:2;">
    <rect id="black" x="0" y="0" width="3000" height="3000" style="fill:none;"/>
    <g id="black1" serif:id="black">
        <g transform="matrix(0.931678,-0.537905,0.52464,0.908704,-802.332,777.816)">
            <g id="Orange">
                <g>
                    <g transform="matrix(-1,0,0,-1,3000,3000)">
                        <path d="M2651.74,1452.35L1671.32,1452.35C1661.87,1452.35 1653.36,1446.48 1649.8,1437.5C1646.24,1428.53 1648.33,1418.23 1655.1,1411.47C1837.75,1228.82 2177.97,888.594 2348.6,718.037C2348.6,718.035 2348.61,718.033 2348.61,718.03C2367.32,699.319 2392.85,689.555 2418.94,691.133C2445.03,692.71 2469.26,705.476 2485.69,726.301C2626.42,905.243 2715.72,1119.25 2743.96,1345.06C2747.31,1372.21 2739.13,1399.52 2721.49,1420.05C2703.84,1440.58 2678.43,1452.35 2651.74,1452.35Z"/>
                    </g>
                    <g transform="matrix(-0.707107,0.707107,-0.707107,-0.707107,3621.32,1500)">
                        <path d="M2647.44,1452.93L1668.61,1452.93C1659.14,1452.93 1650.74,1447.26 1647.29,1438.54C1643.83,1429.82 1645.99,1419.74 1652.76,1412.97C1833.37,1232.36 2172.43,893.293 2345.16,720.638C2345.16,720.636 2345.16,720.634 2345.17,720.631C2364.38,701.414 2390.69,691.119 2417.47,692.335C2444.24,693.552 2468.93,706.158 2485.33,726.982C2625.67,905.778 2714.82,1119.43 2743.21,1344.87C2746.58,1371.96 2737.95,1399.47 2719.56,1420.23C2701.16,1440.99 2674.83,1452.93 2647.44,1452.93Z"/>
                    </g>
                    <g transform="matrix(0,1,-1,0,3000,-1.13687e-12)">
                        <path d="M2648.72,1453.52L1669.56,1453.52C1659.98,1453.52 1651.33,1447.92 1647.61,1439.31C1643.88,1430.7 1645.81,1420.75 1652.5,1414.06C1832.13,1234.43 2170.94,895.628 2344.68,721.966C2344.68,721.964 2344.68,721.961 2344.68,721.959C2364.04,702.601 2391.09,692.43 2418.76,694.102C2446.43,695.774 2471.97,709.119 2488.73,730.654C2628.11,910.103 2716.15,1124.21 2743.39,1349.87C2746.52,1376.21 2737.97,1402.59 2719.89,1422.39C2701.81,1442.19 2675.91,1453.52 2648.72,1453.52Z"/>
                    </g>
                    <g transform="matrix(0.707107,0.707107,-0.707107,0.707107,1500,-621.32)">
                        <path d="M2652.99,1452.93L1672.27,1452.93C1662.7,1452.93 1653.94,1447.13 1650.12,1438.27C1646.29,1429.4 1648.15,1419.23 1654.84,1412.55C1836.51,1230.88 2176.47,890.921 2348.13,719.341C2348.14,719.338 2348.14,719.336 2348.14,719.333C2367,700.47 2393.27,690.832 2420.25,692.873C2447.23,694.913 2472.31,708.432 2489.12,729.986C2628.88,909.588 2717.06,1124.06 2744.13,1350.1C2747.23,1376.46 2739.12,1402.63 2721.79,1422.2C2704.44,1441.78 2679.47,1452.93 2652.99,1452.93Z"/>
                    </g>
                </g>
            </g>
            <path d="M151.671,1567.75C149.738,1529.78 119.144,1500.01 82.057,1500.01C78.537,1500 74.996,1500 71.466,1500C52.347,1500 34.066,1508.05 20.904,1522.27C7.741,1536.49 0.85,1555.62 1.845,1575.2C41.029,2368.69 696.789,3000 1500,3000C2303.21,3000 2958.97,2368.69 2998.15,1575.2C2999.14,1555.62 2992.25,1536.49 2979.09,1522.27C2965.93,1508.06 2947.65,1500.01 2928.53,1500.01C2925,1500 2921.46,1500 2917.94,1500C2880.85,1500 2850.26,1529.78 2848.32,1567.75C2813.03,2281.86 2222.86,2850 1500,2850C777.136,2850 186.968,2281.86 151.671,1567.75Z"/>
            <g transform="matrix(1.00123,0,0,1.00123,597.513,122.41)">
                <path d="M1511.05,414.79C1519.41,400.317 1534.59,391.44 1551,391.44C1567.4,391.44 1582.59,400.317 1590.94,414.79C1590.94,414.79 2076.88,1256.47 2076.88,1256.47C2085.38,1271.18 2085.52,1289.43 2077.26,1304.28C2069.01,1319.13 2053.61,1328.3 2036.94,1328.3C1787.68,1328.3 1314.31,1328.3 1065.05,1328.3C1048.38,1328.3 1032.99,1319.13 1024.73,1304.28C1016.47,1289.43 1016.61,1271.18 1025.11,1256.47L1511.05,414.79Z"/>
            </g>
            <path d="M313.28,1465.83C288.361,1459.49 273.065,1433.76 278.982,1408.14C393.003,922.254 829.531,560 1350,560C1881.77,560 2325.91,938.148 2427.95,1440L2029.98,1440C1863.86,1155.21 1555.04,963.69 1201.85,963.69C846.58,963.69 536.215,1157.46 370.825,1444.99C360.327,1463.34 339.297,1472.42 319.155,1467.29C317.209,1466.83 315.247,1466.33 313.28,1465.83Z"/>
            <clipPath id="_clip1">
                <path d="M313.28,1465.83C288.361,1459.49 273.065,1433.76 278.982,1408.14C393.003,922.254 829.531,560 1350,560C1881.77,560 2325.91,938.148 2427.95,1440L2029.98,1440C1863.86,1155.21 1555.04,963.69 1201.85,963.69C846.58,963.69 536.215,1157.46 370.825,1444.99C360.327,1463.34 339.297,1472.42 319.155,1467.29C317.209,1466.83 315.247,1466.33 313.28,1465.83Z"/>
            </clipPath>
            <g clip-path="url(#_clip1)">
                <path d="M2029.98,1440C1863.86,1155.21 1555.04,963.69 1201.85,963.69C724.374,963.69 328.005,1313.7 255.545,1770.95C251.876,1734.48 250,1697.46 250,1660C250,1052.89 742.893,560 1350,560C1881.77,560 2325.91,938.148 2427.95,1440L2029.98,1440Z" style="fill:none;"/>
                <g transform="matrix(0.969089,0.246712,-0.246712,0.969089,382.926,-95.243)">
                    <rect x="170" y="1530" width="330" height="350" style="fill:none;"/>
                </g>
            </g>
        </g>
    </g>
</svg>
